# xmcd CD database file
#
# Track frame offsets:
#	150
#	22636
#	48185
#	69086
#	92209
#	108547
#	126152
#	147887
#	169372
#	191400
#	212544
#	238298
#	261599
#	280432
#	297530
#	317158
#
# Disc length: 4562 seconds
#
# Revision: 0
# Processed by: cddbd v1.5.1PL0 Copyright (c) Steve Scherf et al.
# Submitted via: freeDB plugin v1.0
#
DISCID=f511d010
DTITLE=ＭＡＮＹ - ＳＩＮＧＬＥ　ＣＤ７
DYEAR=1900
DGENRE=Rock
TTITLE0=Ｓｈａｐｅｓ　Ｏｆ　Ｌｏｖｅ
TTITLE1=悲しみジョニー
TTITLE2=Ｓｈｉｎｉｎ’　ｏｎ−Ｓｈｉｎｉｎ’　ｌｏｖｅ
TTITLE3=ＨＥＡＴ
TTITLE4=モンタージュ
TTITLE5=ミルク
TTITLE6=ＢＬＵＥ　ＨＥＡＶＥＮ
TTITLE7=Ｂａｄ　Ｇｉｒｌｓ
TTITLE8=サヨナラ
TTITLE9=Ｐｒｏｍｉｓｅ
TTITLE10=涙の天使に微笑みを
TTITLE11=ｄｒｅａｍｉｎｇ　Ｉ　ｗａｓ　ｄｒｅａｍｉｎｇ
TTITLE12=ＳＴＡＭＩＮＡ
TTITLE13=ＭＯＴＨＥＲ
TTITLE14=Ｆａｃｅ　ｔｈｅ　ｃｈａｎｇｅ
TTITLE15=ｐｉａｎｉｓｓｉｍｏ
EXTD=
EXTT0=
EXTT1=
EXTT2=
EXTT3=
EXTT4=
EXTT5=
EXTT6=
EXTT7=
EXTT8=
EXTT9=
EXTT10=
EXTT11=
EXTT12=
EXTT13=
EXTT14=
EXTT15=
PLAYORDER=
